<?xml version="1.0" encoding="UTF-8"?>
<svg version="1.1" xmlns="http://www.w3.org/2000/svg" width="522" height="377">
<path d="M0 0 C172.26 0 344.52 0 522 0 C522 124.41 522 248.82 522 377 C349.74 377 177.48 377 0 377 C0 252.59 0 128.18 0 0 Z " fill="#000000" transform="translate(0,0)"/>
<path d="M0 0 C2.53596984 0.01071365 5.0712293 0.00004445 7.60717773 -0.01269531 C22.96267768 -0.02988675 37.08489673 1.77316221 51.85522461 6.26074219 C52.50209229 6.45571289 53.14895996 6.65068359 53.81542969 6.8515625 C65.34746328 10.35977176 75.82501194 14.94389451 86.10522461 21.26074219 C86.76425781 21.65825684 87.42329102 22.05577148 88.10229492 22.46533203 C101.39123378 30.5286205 113.2481266 40.12525705 124.10522461 51.26074219 C125.08555664 52.17339844 125.08555664 52.17339844 126.08569336 53.10449219 C132.46024947 59.16086908 137.36001136 65.90951607 142.10522461 73.26074219 C142.78584961 74.30359375 143.46647461 75.34644531 144.16772461 76.42089844 C149.07840479 84.16097442 153.30841793 92.15531206 157.23413086 100.42822266 C157.98897185 102.01618132 158.76404384 103.59449307 159.54272461 105.17089844 C167.95709909 123.44586802 170.50384874 145.508543 170.41772461 165.38574219 C170.41499039 166.39587875 170.41499039 166.39587875 170.41220093 167.42642212 C170.36002315 178.94343474 169.50248741 189.99407893 167.10522461 201.26074219 C166.93893555 202.0804248 166.77264648 202.90010742 166.60131836 203.74462891 C163.98407401 216.36798614 159.84234099 227.73537647 154.10522461 239.26074219 C153.73848633 240.00517578 153.37174805 240.74960937 152.99389648 241.51660156 C148.42553299 250.7089434 143.46369593 259.16455199 137.10522461 267.26074219 C136.27958008 268.37255859 136.27958008 268.37255859 135.43725586 269.50683594 C124.04885951 284.68234746 110.66132045 296.51740227 94.9440918 307.01220703 C92.49207439 308.67705263 90.11630797 310.44066974 87.73022461 312.19824219 C83.92079611 314.86863891 80.18920375 316.65814173 75.82397461 318.24121094 C72.75618953 319.39163034 69.8308619 320.76482358 66.85522461 322.13574219 C29.4726423 338.28567358 -17.03691469 338.94107362 -55.12426758 324.41015625 C-59.77842328 322.49694411 -64.33312048 320.38303679 -68.89477539 318.26074219 C-70.49775782 317.59123306 -72.10171039 316.92403411 -73.70727539 316.26074219 C-79.06870085 313.87095952 -84.22037959 310.80804068 -88.89477539 307.26074219 C-88.89477539 306.60074219 -88.89477539 305.94074219 -88.89477539 305.26074219 C-89.61793945 304.9990625 -90.34110352 304.73738281 -91.08618164 304.46777344 C-104.29333148 298.7918217 -117.15149187 285.46610333 -125.89477539 274.26074219 C-126.29229004 273.75381836 -126.68980469 273.24689453 -127.09936523 272.72460938 C-137.8125071 258.94331122 -145.79759271 244.16464791 -152.89477539 228.26074219 C-153.22316406 227.5774585 -153.55155273 226.8941748 -153.88989258 226.19018555 C-156.57312399 220.48674413 -158.19319843 214.85001884 -159.51977539 208.69824219 C-159.73142334 207.7242749 -159.94307129 206.75030762 -160.16113281 205.74682617 C-168.76977307 165.14602961 -164.99026949 120.18600692 -142.89477539 84.26074219 C-142.09205461 82.90565084 -141.29000039 81.55016448 -140.48852539 80.19433594 C-135.56918046 71.99192119 -130.24024778 64.44309657 -123.89477539 57.26074219 C-123.25886475 56.52645996 -123.25886475 56.52645996 -122.61010742 55.77734375 C-116.27021846 48.4715309 -109.60778729 42.14698811 -101.89477539 36.26074219 C-100.90219727 35.49890625 -99.90961914 34.73707031 -98.88696289 33.95214844 C-95.90916116 31.69404559 -92.90396199 29.47674645 -89.89477539 27.26074219 C-88.75008789 26.36742187 -88.75008789 26.36742187 -87.58227539 25.45605469 C-74.72585345 15.76909788 -59.24866186 10.21569895 -43.9128418 5.83789062 C-42.18644042 5.3441557 -40.46746751 4.82457108 -38.75024414 4.29980469 C-25.9768642 0.52202614 -13.21528591 -0.06622288 0 0 Z " fill="#FC0000" transform="translate(252.894775390625,20.7392578125)"/>
<path d="M0 0 C1.65802102 -0.01649611 3.31597281 -0.04370196 4.97363281 -0.08203125 C15.94280317 -0.33331703 24.39091698 0.39096849 34.37792969 5.35009766 C35.4460791 5.87724365 36.51422852 6.40438965 37.61474609 6.94750977 C48.77511006 12.61249395 54.76534619 21.8798679 59.37792969 33.35009766 C66.69773622 56.24162745 62.85451892 83.63308736 56.37792969 106.35009766 C56.05284424 107.52209717 56.05284424 107.52209717 55.72119141 108.71777344 C47.73024479 137.40047158 35.26543168 169.43191466 8.27636719 185.32666016 C-0.02728545 189.80311487 -8.00848587 191.65848562 -17.32128906 191.68603516 C-18.11936478 191.69269196 -18.91744049 191.69934875 -19.73970032 191.70620728 C-21.41278805 191.71626052 -23.0859153 191.72102659 -24.7590332 191.72070312 C-27.31365267 191.72510469 -29.86658044 191.76157631 -32.42089844 191.79931641 C-34.05435612 191.8051806 -35.68782193 191.80915265 -37.32128906 191.81103516 C-38.07971603 191.82540619 -38.83814301 191.83977722 -39.61955261 191.85458374 C-43.33460457 191.82259286 -45.42470564 191.47719731 -48.57836914 189.44628906 C-51.14509701 186.81363758 -51.58065531 185.97530487 -51.82519531 182.28369141 C-51.59010456 177.7310685 -50.6109662 173.77848646 -49.37207031 169.41259766 C-48.90643612 167.70838635 -48.44160317 166.00395593 -47.97753906 164.29931641 C-47.63021729 163.03740479 -47.63021729 163.03740479 -47.27587891 161.75 C-44.48706625 151.51324554 -42.09188789 141.16706688 -39.62207031 130.85009766 C-33.63314443 105.84791203 -33.63314443 105.84791203 -31.03987122 96.73973083 C-27.5417483 84.41759398 -24.46493915 71.9898493 -21.37329102 59.56079102 C-20.42836509 55.76265573 -19.4795942 51.96549598 -18.53027344 48.16845703 C-17.92132625 45.72775751 -17.31259453 43.28700421 -16.70410156 40.84619141 C-16.28376396 39.16317177 -16.28376396 39.16317177 -15.85493469 37.44615173 C-14.3599997 31.43028514 -12.93718232 25.40788452 -11.62207031 19.35009766 C-12.55019531 19.59759766 -12.55019531 19.59759766 -13.49707031 19.85009766 C-16.31498858 20.30096458 -18.96131544 20.51765902 -21.80957031 20.60009766 C-23.09927734 20.63876953 -23.09927734 20.63876953 -24.41503906 20.67822266 C-25.14335937 20.56994141 -25.87167969 20.46166016 -26.62207031 20.35009766 C-29.31789575 16.30635949 -28.76091449 13.72470916 -28.21972656 9.02197266 C-27.34779304 5.1239169 -25.94498084 3.51721321 -22.62207031 1.35009766 C-15.1542006 -0.0682321 -7.57321256 0.05496447 0 0 Z " fill="#FDF303" transform="translate(250.6220703125,91.64990234375)"/>
<path d="M0 0 C1.43969061 -0.02488433 2.87950571 -0.04263501 4.31933594 -0.05737305 C5.12111267 -0.06802292 5.9228894 -0.07867279 6.7489624 -0.08964539 C12.48343656 0.13872448 17.41631144 3.76824223 21.8125 7.1875 C29.89472622 17.57893371 32.5560117 29.75252996 32.375 42.6875 C32.36194824 44.26277466 32.36194824 44.26277466 32.34863281 45.86987305 C32.19954671 53.84048051 31.29979923 61.23363712 29.453125 69.00439453 C28.96364994 71.1600891 28.55484429 73.32181724 28.15625 75.49609375 C23.39913777 100.89454751 13.31376986 132.44483917 -8 149 C-13.42398879 152.22682741 -18.8183222 155.14313247 -25.23046875 155.09765625 C-26.03291016 155.09443359 -26.83535156 155.09121094 -27.66210938 155.08789062 C-28.49548828 155.07951172 -29.32886719 155.07113281 -30.1875 155.0625 C-31.03248047 155.05798828 -31.87746094 155.05347656 -32.74804688 155.04882812 C-34.83206155 155.03705403 -36.91603977 155.0191189 -39 155 C-38.08596091 149.10685325 -36.89113168 143.40535693 -35.1875 137.6875 C-33.45964761 131.83305509 -32.05785941 125.96126749 -30.75 120 C-28.73879582 110.89146548 -26.4301228 101.88016824 -24 92.875 C-23.82654053 92.23205994 -23.65308105 91.58911987 -23.47436523 90.92669678 C-23.30171143 90.28685852 -23.12905762 89.64702026 -22.95117188 88.98779297 C-20.40783308 79.55885906 -17.9821516 70.10834936 -15.64746094 60.62597656 C-12.30060968 47.05179401 -8.80305232 33.52153115 -5.25 20 C-4.73819693 18.04950129 -4.22647767 16.09898059 -3.71484375 14.1484375 C-2.47752565 9.43203832 -1.23908394 4.71593556 0 0 Z " fill="#FC0100" transform="translate(261,110)"/>
<path d="M0 0 C0.66 0 1.32 0 2 0 C3.56570322 8.97483453 4.19345683 17.70301141 4.1875 26.8125 C4.18814453 27.78525879 4.18878906 28.75801758 4.18945312 29.76025391 C4.13518799 36.72962402 4.13518799 36.72962402 3 39 C2.81564968 40.93421523 2.67742064 42.87292096 2.5625 44.8125 C2.09177584 51.61522336 1.13294827 58.27930686 0 65 C-0.66 65 -1.32 65 -2 65 C-2.06058594 65.60328125 -2.12117188 66.2065625 -2.18359375 66.828125 C-2.26738281 67.62734375 -2.35117187 68.4265625 -2.4375 69.25 C-2.55931641 70.43335938 -2.55931641 70.43335938 -2.68359375 71.640625 C-2.97634993 73.82364639 -3.42064419 75.8773182 -4 78 C-4.66 78 -5.32 78 -6 78 C-5.43086704 72.6841808 -4.49747429 67.79090745 -3.0625 62.625 C2.16961725 42.4723603 2.53086821 20.60849825 0 0 Z " fill="#E32100" transform="translate(311,128)"/>
<path d="M0 0 C1.31456486 3.36911656 0.7238111 6.06482776 0.02050781 9.53198242 C-3.9002978 29.05450122 -2.79173901 50.25887557 -1 70 C-1.33 70 -1.66 70 -2 70 C-4.66157778 59.98496054 -5.42365733 50.77135499 -5.28125 40.47241211 C-5.24941683 38.14486054 -5.24019741 35.81798447 -5.234375 33.49023438 C-5.22522833 32.00780412 -5.21486014 30.52538077 -5.203125 29.04296875 C-5.19887512 28.3483403 -5.19462524 27.65371185 -5.19024658 26.93803406 C-5.11736061 22.11736061 -5.11736061 22.11736061 -4 21 C-3.62267887 18.96600328 -3.29843234 16.92205936 -3 14.875 C-2.82597656 13.70195312 -2.65195313 12.52890625 -2.47265625 11.3203125 C-2.11363395 8.79825502 -1.7703644 6.27554256 -1.4375 3.75 C-1 1 -1 1 0 0 Z " fill="#350000" transform="translate(92,148)"/>
<path d="M0 0 C0.99 0.495 0.99 0.495 2 1 C3.64371503 6.31790156 4.33934668 11.45453221 4.75390625 16.99609375 C4.79079325 18.99600793 4.79079325 18.99600793 6 20 C6.28914558 24.82610258 6.24283952 29.66605687 6.25 34.5 C6.25233643 35.2040799 6.25467285 35.90815979 6.25708008 36.63357544 C6.27056556 47.34089157 5.60125297 57.57950447 3 68 C2.67 68 2.34 68 2 68 C2.0721875 67.20464844 2.144375 66.40929687 2.21875 65.58984375 C3.9067293 43.66955706 4.05584332 21.65530632 0 0 Z " fill="#370000" transform="translate(419,150)"/>
<path d="M0 0 C2.64 0 5.28 0 8 0 C8 0.66 8 1.32 8 2 C8.67546875 1.98839844 9.3509375 1.97679687 10.046875 1.96484375 C11.38492188 1.95130859 11.38492188 1.95130859 12.75 1.9375 C14.07257813 1.92009766 14.07257813 1.92009766 15.421875 1.90234375 C18 2 18 2 19.9042511 2.49801636 C22.05350935 3.01281681 23.90384774 3.1268823 26.11010742 3.12939453 C26.90740768 3.13254669 27.70470795 3.13569885 28.52616882 3.13894653 C29.3773378 3.1369223 30.22850677 3.13489807 31.10546875 3.1328125 C32.42518425 3.13424759 32.42518425 3.13424759 33.77156067 3.13571167 C35.62659782 3.13639102 37.48163737 3.13455381 39.33666992 3.13037109 C42.18739089 3.12500021 45.03795568 3.13033417 47.88867188 3.13671875 C49.69010452 3.1360583 51.49153706 3.13477783 53.29296875 3.1328125 C54.15021042 3.13483673 55.00745209 3.13686096 55.89067078 3.13894653 C59.75628226 3.50582627 59.75628226 3.50582627 63 2 C65.18639453 1.92741054 67.37500389 1.91626217 69.5625 1.9375 C71.35880859 1.95103516 71.35880859 1.95103516 73.19140625 1.96484375 C74.11824219 1.97644531 75.04507813 1.98804688 76 2 C76 2.33 76 2.66 76 3 C55.39466837 8.10180086 19.40735063 10.60994112 0 0 Z " fill="#CC0E0E" transform="translate(214,349)"/>
<path d="M0 0 C4.65901308 -0.02495763 9.31798614 -0.04298042 13.97705078 -0.05493164 C15.55778686 -0.05992073 17.13851841 -0.06671438 18.71923828 -0.07543945 C38.93088287 -0.18410421 38.93088287 -0.18410421 44 1 C44.66 1.66 45.32 2.32 46 3 C44.79166504 2.98952637 43.58333008 2.97905273 42.33837891 2.96826172 C37.76467976 2.93148393 33.19099304 2.90889412 28.6171875 2.89013672 C26.65459989 2.88020849 24.69202653 2.86666145 22.72949219 2.84912109 C9.99592913 2.73833779 -2.37942083 3.26038015 -15 5 C-11.54073079 2.19177303 -9.74282314 1.65204203 -5.25 1.8125 C-4.26515625 1.83957031 -3.2803125 1.86664062 -2.265625 1.89453125 C-1.14414063 1.94673828 -1.14414063 1.94673828 0 2 C0 1.34 0 0.68 0 0 Z " fill="#4F0000" transform="translate(233,19)"/>
<path d="M0 0 C0.33 0 0.66 0 1 0 C1.02505615 1.29736084 1.0501123 2.59472168 1.07592773 3.93139648 C1.16981752 8.72658856 1.27008249 13.5216295 1.37231445 18.31665039 C1.41573334 20.39539057 1.45740312 22.47416803 1.49731445 24.55297852 C1.55484921 27.53413145 1.61859119 30.51509549 1.68359375 33.49609375 C1.70030624 34.43150497 1.71701874 35.3669162 1.73423767 36.33067322 C1.75418289 37.19149002 1.77412811 38.05230682 1.79467773 38.93920898 C1.81022202 39.70087875 1.8257663 40.46254852 1.84178162 41.24729919 C1.81379329 43.02735006 1.81379329 43.02735006 3 44 C3.07258946 46.18639453 3.08373783 48.37500389 3.0625 50.5625 C3.05347656 51.76003906 3.04445313 52.95757812 3.03515625 54.19140625 C3.02355469 55.11824219 3.01195313 56.04507813 3 57 C-2.85713128 46.88537413 -1.18848676 32.21699324 -1.1875 20.875 C-1.18840637 20.18715424 -1.18931274 19.49930847 -1.19024658 18.7906189 C-1.18837949 6.25069833 -1.18837949 6.25069833 0 0 Z " fill="#CF0F0F" transform="translate(90,165)"/>
<path d="M0 0 C0.33 0 0.66 0 1 0 C1 3.96 1 7.92 1 12 C2.65 11.67 4.3 11.34 6 11 C7.91505483 10.91104937 9.83288749 10.86981861 11.75 10.875 C13.19632813 10.87113281 13.19632813 10.87113281 14.671875 10.8671875 C17 11 17 11 18 12 C18.42248284 17.06979407 17.58981408 20.82039444 15.8671875 25.578125 C14.92250401 28.21643024 14.1093276 30.87605266 13.3125 33.5625 C13.06113281 34.40941406 12.80976563 35.25632813 12.55078125 36.12890625 C12.36902344 36.74636719 12.18726563 37.36382812 12 38 C10.88008203 34.63684208 11.14251484 32.42994063 11.99609375 29.015625 C12.22490234 28.08105469 12.45371094 27.14648438 12.68945312 26.18359375 C12.93630859 25.21550781 13.18316406 24.24742188 13.4375 23.25 C13.68048828 22.26644531 13.92347656 21.28289062 14.17382812 20.26953125 C14.77428331 17.84416327 15.38326726 15.42127055 16 13 C14.84310669 13.24121582 14.84310669 13.24121582 13.6628418 13.48730469 C10.99883303 14.00022468 8.52272338 14.20079776 5.8125 14.25 C4.52279297 14.28867188 4.52279297 14.28867188 3.20703125 14.328125 C2.47871094 14.21984375 1.75039062 14.1115625 1 14 C-1.36574234 10.4513865 -1.10865265 9.4235475 -0.625 5.3125 C-0.51414063 4.31863281 -0.40328125 3.32476562 -0.2890625 2.30078125 C-0.19367188 1.54152344 -0.09828125 0.78226562 0 0 Z " fill="#FDBF14" transform="translate(223,98)"/>
<path d="M0 0 C1.32 0.33 2.64 0.66 4 1 C2.50565577 1.80229137 1.00413528 2.59121867 -0.5 3.375 C-1.75296875 4.03628906 -1.75296875 4.03628906 -3.03125 4.7109375 C-9.57982111 7.55439601 -15.72388584 8.30924581 -22.76953125 8.30078125 C-23.97375984 8.30720894 -23.97375984 8.30720894 -25.20231628 8.31376648 C-26.88381003 8.31946778 -28.56532843 8.32004135 -30.24682617 8.31567383 C-32.82317392 8.3124868 -35.39840093 8.33611677 -37.97460938 8.36132812 C-39.61458189 8.36359882 -41.25455748 8.36430568 -42.89453125 8.36328125 C-43.66328079 8.372491 -44.43203033 8.38170074 -45.22407532 8.39118958 C-50.54561289 8.34481231 -50.54561289 8.34481231 -53.0065918 6.47729492 C-53.3344165 5.9897876 -53.66224121 5.50228027 -54 5 C-52.25589844 5.10828125 -52.25589844 5.10828125 -50.4765625 5.21875 C-27.6315953 6.70841508 -27.6315953 6.70841508 -5 4 C-5 3.34 -5 2.68 -5 2 C-3.35 2 -1.7 2 0 2 C0 1.34 0 0.68 0 0 Z " fill="#FECF17" transform="translate(256,275)"/>
<path d="M0 0 C1.22074219 0.20496094 2.44148437 0.40992188 3.69921875 0.62109375 C5.36193224 0.89351573 7.02469541 1.16563461 8.6875 1.4375 C9.48478516 1.57220703 10.28207031 1.70691406 11.10351562 1.84570312 C23.6587369 3.88034373 36.13159904 4.13846787 48.8125 4.0625 C50.29492034 4.05746824 51.77734236 4.05290834 53.25976562 4.04882812 C56.8398795 4.0379707 60.41992843 4.02080135 64 4 C64 4.33 64 4.66 64 5 C42.82405017 6.79674726 22.02621462 6.14967587 1 3 C0.67 2.01 0.34 1.02 0 0 Z " fill="#430100" transform="translate(216,350)"/>
<path d="M0 0 C0.79666077 -0.00191345 1.59332153 -0.0038269 2.41412354 -0.00579834 C4.08126139 -0.00714785 5.74841021 -0.00353861 7.41552734 0.00488281 C9.96085105 0.01565771 12.50547825 0.00491646 15.05078125 -0.0078125 C16.67968905 -0.0064918 18.30859641 -0.00393125 19.9375 0 C21.07043488 -0.00607269 21.07043488 -0.00607269 22.22625732 -0.01226807 C26.32399996 0.02404854 29.5155721 0.43728144 33.203125 2.265625 C33.203125 2.595625 33.203125 2.925625 33.203125 3.265625 C30.563125 3.265625 27.923125 3.265625 25.203125 3.265625 C25.203125 2.605625 25.203125 1.945625 25.203125 1.265625 C21.10950394 1.3837906 17.01611733 1.50803284 12.92285156 1.63793945 C11.5299991 1.68128346 10.13709369 1.72295896 8.74414062 1.76293945 C6.74335849 1.82065432 4.74276641 1.88484369 2.7421875 1.94921875 C1.53771973 1.98587646 0.33325195 2.02253418 -0.90771484 2.06030273 C-3.73683867 2.07615487 -3.73683867 2.07615487 -5.796875 3.265625 C-7.50390235 3.33558514 -9.21355503 3.35002654 -10.921875 3.328125 C-11.83195313 3.31910156 -12.74203125 3.31007813 -13.6796875 3.30078125 C-14.37835938 3.28917969 -15.07703125 3.27757813 -15.796875 3.265625 C-15.796875 3.925625 -15.796875 4.585625 -15.796875 5.265625 C-17.116875 5.595625 -18.436875 5.925625 -19.796875 6.265625 C-18.33933134 2.50508835 -18.33933134 2.50508835 -15.94207764 1.44683838 C-10.58291804 0.44612997 -5.44980972 -0.02952831 0 0 Z " fill="#FED116" transform="translate(243.796875,91.734375)"/>
<path d="M0 0 C1.25515344 3.76546031 0.4190114 6.29641236 -0.5625 10 C-0.74232422 10.69552979 -0.92214844 11.39105957 -1.10742188 12.10766602 C-2.60157189 17.75882621 -4.26442488 23.35621794 -6 28.9375 C-6.23662354 29.70513672 -6.47324707 30.47277344 -6.71704102 31.26367188 C-8.44425918 36.69056677 -10.59374322 41.84013655 -13 47 C-13.33 47 -13.66 47 -14 47 C-14 45.35 -14 43.7 -14 42 C-13.34 42 -12.68 42 -12 42 C-12 40.35 -12 38.7 -12 37 C-11.34 37 -10.68 37 -10 37 C-10 35.02 -10 33.04 -10 31 C-9.34 31 -8.68 31 -8 31 C-8 29.02 -8 27.04 -8 25 C-7.34 25 -6.68 25 -6 25 C-6.0928125 23.7934375 -6.0928125 23.7934375 -6.1875 22.5625 C-5.98885711 18.788285 -5.1285877 15.98294515 -3.8671875 12.45703125 C-2.41913961 8.35422891 -1.22832613 4.17282422 0 0 Z " fill="#FED517" transform="translate(309,183)"/>
<path d="M0 0 C0.33 0 0.66 0 1 0 C1.40566938 7.03160253 0.07523451 13.27968099 -2 20 C-2.33 20.33 -2.66 20.66 -3 21 C-3.15958101 22.35052814 -3.27728276 23.70609162 -3.375 25.0625 C-3.84631898 29.77568979 -5.21254405 33.64991589 -7 38 C-7.67735217 39.99640639 -8.34838935 41.99504414 -9 44 C-10.33965813 40.27947541 -9.6514167 37.67754205 -8.671875 33.90625 C-8.36636719 32.71 -8.06085938 31.51375 -7.74609375 30.28125 C-7.25302734 28.40953125 -7.25302734 28.40953125 -6.75 26.5 C-6.43675781 25.283125 -6.12351563 24.06625 -5.80078125 22.8125 C-5.17730431 20.39102938 -4.55039618 17.97043941 -3.91992188 15.55078125 C-2.57917382 10.37566455 -1.28643114 5.18884515 0 0 Z " fill="#E72800" transform="translate(249,156)"/>
<path d="M0 0 C0.66 0.33 1.32 0.66 2 1 C0.65144233 1.80118392 -0.70421743 2.59041608 -2.0625 3.375 C-2.81660156 3.81585938 -3.57070312 4.25671875 -4.34765625 4.7109375 C-9.89640149 7.40767672 -14.89660143 8.24903994 -21.02734375 7.9765625 C-22.95610352 7.89921875 -22.95610352 7.89921875 -24.92382812 7.8203125 C-26.2617308 7.7554564 -27.59962132 7.69034917 -28.9375 7.625 C-30.30269021 7.56666546 -31.667925 7.50936445 -33.03320312 7.453125 C-36.35604816 7.31222698 -39.67807176 7.16086666 -43 7 C-43 6.67 -43 6.34 -43 6 C-42.20416504 5.98541748 -41.40833008 5.97083496 -40.58837891 5.95581055 C-36.93346534 5.88069504 -33.27940249 5.78424492 -29.625 5.6875 C-28.37332031 5.66494141 -27.12164062 5.64238281 -25.83203125 5.61914062 C-17.17496177 5.36985328 -9.97435721 4.07264884 -2 0.75 C-1.34 0.5025 -0.68 0.255 0 0 Z " fill="#EB4000" transform="translate(257,277)"/>
<path d="M0 0 C0.33 0 0.66 0 1 0 C4.23800533 14.46233341 2.52228674 30.74312509 -1 45 C-1.33 45 -1.66 45 -2 45 C-2.02688151 43.35425434 -2.04634123 41.70838587 -2.0625 40.0625 C-2.07410156 39.14597656 -2.08570313 38.22945312 -2.09765625 37.28515625 C-2 35 -2 35 -1 34 C0.60942269 22.79364945 0.10404639 11.2866325 0 0 Z " fill="#E02A00" transform="translate(291,136)"/>
<path d="M0 0 C0 4.46806882 -2.67759991 6.52095228 -5.46875 9.84375 C-7.28950024 11.96688964 -7.28950024 11.96688964 -7 15 C-8.32 15 -9.64 15 -11 15 C-11.268125 15.61875 -11.53625 16.2375 -11.8125 16.875 C-13 19 -13 19 -16 21 C-16.99 21 -17.98 21 -19 21 C-19 21.66 -19 22.32 -19 23 C-20.32 22.67 -21.64 22.34 -23 22 C-22.21496094 21.443125 -21.42992187 20.88625 -20.62109375 20.3125 C-14.27975301 15.70627458 -8.85516488 11.22110263 -4 5 C-3.195625 4.01 -2.39125 3.02 -1.5625 2 C-1.046875 1.34 -0.53125 0.68 0 0 Z " fill="#E72400" transform="translate(282,254)"/>
<path d="M0 0 C1.17636997 3.52910992 0.84006084 3.97989985 -0.6953125 7.203125 C-1.27539062 8.42708984 -1.27539062 8.42708984 -1.8671875 9.67578125 C-2.28226562 10.52527344 -2.69734375 11.37476563 -3.125 12.25 C-3.7128125 13.50103516 -3.7128125 13.50103516 -4.3125 14.77734375 C-6.7845839 19.92347919 -9.54706581 24.45343185 -13 29 C-14 26 -14 26 -13.25 23.4375 C-12 21 -12 21 -9 19 C-8.27617533 16.94074861 -8.27617533 16.94074861 -8 15 C-7.34 15 -6.68 15 -6 15 C-5.79697266 14.17048828 -5.79697266 14.17048828 -5.58984375 13.32421875 C-4.9513381 10.80825278 -4.27415235 8.30881419 -3.5625 5.8125 C-3.31628906 4.93207031 -3.07007813 4.05164063 -2.81640625 3.14453125 C-2 1 -2 1 0 0 Z " fill="#E42200" transform="translate(279,215)"/>
<path d="M0 0 C0.82765869 -0.0127597 1.65531738 -0.02551941 2.50805664 -0.03866577 C3.39356201 -0.04089142 4.27906738 -0.04311707 5.19140625 -0.04541016 C6.10849365 -0.05206696 7.02558105 -0.05872375 7.97045898 -0.06558228 C9.90704342 -0.07569526 11.84366262 -0.08039971 13.78027344 -0.08007812 C16.74342044 -0.08445716 19.70508461 -0.12080664 22.66796875 -0.15869141 C24.55077616 -0.16455866 26.43359064 -0.16852866 28.31640625 -0.17041016 C29.64466431 -0.19196671 29.64466431 -0.19196671 30.99975586 -0.21395874 C37.16845615 -0.16809731 37.16845615 -0.16809731 40.34375 2.31933594 C40.80910156 2.9698291 41.27445312 3.62032227 41.75390625 4.29052734 C40.80700928 3.96455566 39.8601123 3.63858398 38.88452148 3.30273438 C34.14963228 1.95719844 29.55431298 2.03940157 24.6640625 2.09521484 C23.7195372 2.09804474 22.7750119 2.10087463 21.80186462 2.10379028 C18.80657901 2.11492051 15.81160039 2.14001175 12.81640625 2.16552734 C10.77669705 2.1755664 8.73698313 2.18469063 6.69726562 2.19287109 C1.71602885 2.21483638 -3.26498053 2.24931658 -8.24609375 2.29052734 C-5.37500323 0.66541131 -3.29178841 0.03460565 0 0 Z " fill="#E52E00" transform="translate(237.24609375,90.70947265625)"/>
<path d="M0 0 C1.29573529 4.27853931 0.495141 7.89404114 -0.375 12.1875 C-0.51421875 12.92419922 -0.6534375 13.66089844 -0.796875 14.41992188 C-1.85734821 19.85734821 -1.85734821 19.85734821 -3 21 C-3.19313021 22.99567879 -3.38320963 24.99209519 -3.5234375 26.9921875 C-4.10524314 29.44340142 -5.10824485 30.3915023 -7 32 C-6.28925785 20.92222587 -3.29231649 10.55409258 0 0 Z " fill="#FECD16" transform="translate(217,200)"/>
<path d="M0 0 C0.66 0 1.32 0 2 0 C0.96033971 10.60453497 -1.77471069 20.86664423 -5 31 C-5.33 31 -5.66 31 -6 31 C-4.32994924 15.32994924 -4.32994924 15.32994924 -3 14 C-2.76924918 12.65252916 -2.58846937 11.29622435 -2.4375 9.9375 C-2.2209375 7.9884375 -2.2209375 7.9884375 -2 6 C-1.34 6 -0.68 6 0 6 C0 4.02 0 2.04 0 0 Z " fill="#E72300" transform="translate(211,214)"/>
<path d="M0 0 C3.94120709 0.56302958 6.7508723 1.6791945 10 4 C10 4.66 10 5.32 10 6 C10.66 6 11.32 6 12 6 C12.33 6.66 12.66 7.32 13 8 C13.99 8.33 14.98 8.66 16 9 C17.1875 12.0625 17.1875 12.0625 18 15 C18.66 15 19.32 15 20 15 C21.66670026 18.52948291 22.13583456 20.28272326 21 24 C20.52949219 23.16855469 20.05898438 22.33710937 19.57421875 21.48046875 C18.95160156 20.39378906 18.32898438 19.30710937 17.6875 18.1875 C17.07261719 17.10855469 16.45773437 16.02960938 15.82421875 14.91796875 C14.33173661 12.5306365 12.97927541 10.93055479 11 9 C11 8.34 11 7.68 11 7 C10.484375 6.7525 9.96875 6.505 9.4375 6.25 C6.22815849 4.60418384 3.12414336 2.8023904 0 1 C0 0.67 0 0.34 0 0 Z " fill="#E62600" transform="translate(287,98)"/>
<path d="M0 0 C0.33 0 0.66 0 1 0 C1 2.97 1 5.94 1 9 C6.94 9 12.88 9 19 9 C15.89914429 11.06723714 15.27068319 11.24497423 11.76953125 11.1953125 C10.56586914 11.18564453 10.56586914 11.18564453 9.33789062 11.17578125 C8.50451172 11.15902344 7.67113281 11.14226562 6.8125 11.125 C5.96751953 11.11597656 5.12253906 11.10695313 4.25195312 11.09765625 C2.16784757 11.07410703 0.08388783 11.03823647 -2 11 C-1.34 7.37 -0.68 3.74 0 0 Z " fill="#E52100" transform="translate(224,254)"/>
<path d="M0 0 C8.19256018 -0.4726477 8.19256018 -0.4726477 11.5625 1.5 C12.036875 1.995 12.51125 2.49 13 3 C8.66831683 3.26252625 5.1196377 2.29243536 1 1 C0.95101563 1.78503906 0.90203125 2.57007812 0.8515625 3.37890625 C0.4379964 9.19022303 -0.11782148 14.478943 -2 20 C-2.66 20 -3.32 20 -4 20 C-3.34034961 13.13963599 -1.7637236 6.65556077 0 0 Z " fill="#E83100" transform="translate(261,110)"/>
<path d="M0 0 C0.33 0 0.66 0 1 0 C1.56422452 7.11549817 0.65715146 13.64021209 -0.875 20.5625 C-1.04870117 21.36026855 -1.22240234 22.15803711 -1.40136719 22.97998047 C-2.73953234 28.73953234 -2.73953234 28.73953234 -5 31 C-4.55223545 24.16001046 -3.31404599 17.73045785 -1.69921875 11.07421875 C-0.85930948 7.3814333 -0.36918839 3.76572159 0 0 Z " fill="#FEC616" transform="translate(292,165)"/>
<path d="M0 0 C0.33 0 0.66 0 1 0 C1.20413361 5.73842251 1.27141454 10.60539047 -1 16 C-1.66 16 -2.32 16 -3 16 C-3 17.98 -3 19.96 -3 22 C-3.66 22 -4.32 22 -5 22 C-4.38955672 14.36945905 -2.20378179 7.29810526 0 0 Z " fill="#E93000" transform="translate(236,208)"/>
<path d="M0 0 C2.45046712 8.69162824 -0.88858642 18.2761308 -5 26 C-6.19784792 22.51664404 -5.78454679 20.30493975 -4.78515625 16.796875 C-4.51123047 15.8171875 -4.23730469 14.8375 -3.95507812 13.828125 C-3.66052734 12.81234375 -3.36597656 11.7965625 -3.0625 10.75 C-2.77181641 9.71875 -2.48113281 8.6875 -2.18164062 7.625 C-1.46311846 5.0807248 -0.73563156 2.53937099 0 0 Z " fill="#E62A00" transform="translate(256,130)"/>
<path d="M0 0 C0.33 1.32 0.66 2.64 1 4 C0.34 4 -0.32 4 -1 4 C-0.938125 4.70125 -0.87625 5.4025 -0.8125 6.125 C-1.04623423 9.7089248 -2.34563904 11.81382334 -4 15 C-4.8055898 17.30224927 -5.54088032 19.616778 -6.25390625 21.94921875 C-7 24 -7 24 -9 27 C-8.40161917 21.41511222 -6.97938321 16.51798118 -5.0625 11.25 C-4.79759766 10.49589844 -4.53269531 9.74179688 -4.25976562 8.96484375 C-3.06334482 5.62199057 -1.98984499 2.98476749 0 0 Z " fill="#C40C0D" transform="translate(104,117)"/>
<path d="M0 0 C3.63 0 7.26 0 11 0 C11 0.33 11 0.66 11 1 C8.36 1 5.72 1 3 1 C3 1.66 3 2.32 3 3 C-5.91 3.99 -5.91 3.99 -15 5 C-10.7952889 1.84646667 -10.14908143 1.63753281 -5.25 1.8125 C-4.26515625 1.83957031 -3.2803125 1.86664062 -2.265625 1.89453125 C-1.14414063 1.94673828 -1.14414063 1.94673828 0 2 C0 1.34 0 0.68 0 0 Z " fill="#2B0000" transform="translate(233,19)"/>
<path d="M0 0 C0.33 0.66 0.66 1.32 1 2 C-0.12989905 4.35844008 -1.30891033 6.56129398 -2.625 8.8125 C-2.96917969 9.42931641 -3.31335938 10.04613281 -3.66796875 10.68164062 C-6.007819 14.74400056 -8.55148418 17.82373543 -12 21 C-11.41980487 17.63486826 -10.36548527 16.36548527 -8 14 C-7.28552357 11.89667109 -7.28552357 11.89667109 -7 10 C-6.34 10 -5.68 10 -5 10 C-5 8.68 -5 7.36 -5 6 C-4.34 5.67 -3.68 5.34 -3 5 C-2.835 4.34 -2.67 3.68 -2.5 3 C-2.335 2.34 -2.17 1.68 -2 1 C-1.34 0.67 -0.68 0.34 0 0 Z " fill="#FED118" transform="translate(292,235)"/>
<path d="M0 0 C0.33 0 0.66 0 1 0 C1.3084267 8.48173428 -0.59372821 15.92180184 -3 24 C-3.66 24 -4.32 24 -5 24 C-4.39496146 18.3444819 -3.37814297 12.99786009 -1.9375 7.5 C-1.75123047 6.77296875 -1.56496094 6.0459375 -1.37304688 5.296875 C-0.91973545 3.53012276 -0.4604998 1.76489225 0 0 Z " fill="#450000" transform="translate(420,218)"/>
<path d="M0 0 C0.33 0 0.66 0 1 0 C1 2.31 1 4.62 1 7 C0.34 7 -0.32 7 -1 7 C-0.9175 7.99 -0.835 8.98 -0.75 10 C-0.71209308 14.63412067 -2.71714715 18.07634666 -5 22 C-5.66 22 -6.32 22 -7 22 C-4.84071065 14.60606981 -2.4695482 7.29582259 0 0 Z " fill="#E92E00" transform="translate(304,206)"/>
<path d="M0 0 C0.33 0.66 0.66 1.32 1 2 C0.401875 2.721875 -0.19625 3.44375 -0.8125 4.1875 C-2.7757602 6.71169168 -4.3695199 9.25782892 -6 12 C-8 14 -8 14 -10.625 14.125 C-11.40875 14.08375 -12.1925 14.0425 -13 14 C-12.34 13.360625 -11.68 12.72125 -11 12.0625 C-7.14346256 8.2170765 -3.59166578 4.09075581 0 0 Z " fill="#FED614" transform="translate(263,247)"/>
<path d="M0 0 C0.66 0 1.32 0 2 0 C1.25768373 7.72008916 0.35779152 16.46331272 -4 23 C-4.04254356 21.00045254 -4.04080783 18.99958364 -4 17 C-3.67 16.67 -3.34 16.34 -3 16 C-2.79395915 14.67218122 -2.6337041 13.33704105 -2.5 12 C-2.11111111 8.11111111 -2.11111111 8.11111111 -1 7 C-0.63239269 4.67182036 -0.29758419 2.3381615 0 0 Z " fill="#FFDF1A" transform="translate(249,148)"/>
<path d="M0 0 C5.28 0 10.56 0 16 0 C15.25 8.5 15.25 8.5 13 13 C13.33 9.37 13.66 5.74 14 2 C9.38 2 4.76 2 0 2 C0 1.34 0 0.68 0 0 Z " fill="#E21E00" transform="translate(223,111)"/>
<path d="M0 0 C2.10456857 7.10102632 -2.82933362 14.65866724 -6 21 C-6.66 21 -7.32 21 -8 21 C-6.48728707 16.28562282 -4.73227046 11.71041415 -2.875 7.125 C-2.59785156 6.43664062 -2.32070313 5.74828125 -2.03515625 5.0390625 C-1.35835767 3.35873499 -0.67940197 1.67927658 0 0 Z " fill="#FECC14" transform="translate(281,212)"/>
<path d="M0 0 C5.46627042 6.82502907 7.44531682 14.40241069 8 23 C7.34 23 6.68 23 6 23 C5.9071875 21.63875 5.9071875 21.63875 5.8125 20.25 C5.15945436 15.41152548 3.05859555 11.18313296 1.05859375 6.76953125 C0 4 0 4 0 0 Z " fill="#BF0B0E" transform="translate(409,121)"/>
<path d="M0 0 C0.66 0.33 1.32 0.66 2 1 C0.71319131 3.6274838 -0.57917678 6.25196683 -1.875 8.875 C-2.23980469 9.62136719 -2.60460937 10.36773437 -2.98046875 11.13671875 C-3.33496094 11.85214844 -3.68945312 12.56757812 -4.0546875 13.3046875 C-4.37937012 13.96452637 -4.70405273 14.62436523 -5.03857422 15.30419922 C-6 17 -6 17 -8 19 C-7.46274105 15.62294375 -6.88935377 12.303314 -6 9 C-5.34 9 -4.68 9 -4 9 C-4 7.68 -4 6.36 -4 5 C-3.34 5 -2.68 5 -2 5 C-2 4.34 -2 3.68 -2 3 C-1.34 3 -0.68 3 0 3 C0 2.01 0 1.02 0 0 Z " fill="#350000" transform="translate(111,100)"/>
<path d="M0 0 C0.671875 1.73828125 0.671875 1.73828125 1 4 C-0.109375 6.10546875 -0.109375 6.10546875 -1.75 8.1875 C-2.28109375 8.88230469 -2.8121875 9.57710938 -3.359375 10.29296875 C-5 12 -5 12 -8 13 C-6.40956621 7.91061189 -3.2553049 4.12543357 0 0 Z " fill="#330101" transform="translate(397,277)"/>
<path d="M0 0 C0.33 0 0.66 0 1 0 C0.354523 7.90709331 -1.86997139 15.39133967 -4 23 C-4.33 23 -4.66 23 -5 23 C-4.38273804 17.32644329 -3.72054048 11.66138945 -3 6 C-2.34 6 -1.68 6 -1 6 C-0.67 4.02 -0.34 2.04 0 0 Z " fill="#FFD818" transform="translate(236,203)"/>
<path d="M0 0 C0.33 0.99 0.66 1.98 1 3 C0.01 3.33 -0.98 3.66 -2 4 C-2.1546875 4.86625 -2.1546875 4.86625 -2.3125 5.75 C-3.40707864 9.33225738 -6.06823206 10.75439052 -9 13 C-9.66 12.67 -10.32 12.34 -11 12 C-7.37 8.04 -3.74 4.08 0 0 Z " fill="#D50A0A" transform="translate(134,73)"/>
<path d="M0 0 C-1.21558594 0.42152344 -2.43117187 0.84304687 -3.68359375 1.27734375 C-5.26828192 1.83057808 -6.85291448 2.38397172 -8.4375 2.9375 C-9.23994141 3.21529297 -10.04238281 3.49308594 -10.86914062 3.77929688 C-11.63291016 4.04677734 -12.39667969 4.31425781 -13.18359375 4.58984375 C-13.89056396 4.83597412 -14.59753418 5.08210449 -15.32592773 5.33569336 C-17.00682632 5.87467975 -17.00682632 5.87467975 -18 7 C-19.66617115 7.04063832 -21.33388095 7.042721 -23 7 C-19.55595448 4.01281766 -15.76659144 2.65010476 -11.5 1.25 C-10.83613281 1.01667969 -10.17226562 0.78335937 -9.48828125 0.54296875 C-5.87274169 -0.6622111 -3.62277139 -1.13137043 0 0 Z " fill="#C50E0C" transform="translate(211,28)"/>
<path d="M0 0 C0.33 0 0.66 0 1 0 C1.2358396 5.77807024 0.86783046 10.51324804 -1 16 C-1.66 16 -2.32 16 -3 16 C-3.33 16.66 -3.66 17.32 -4 18 C-3.41632611 11.69632197 -1.95928381 6.01339937 0 0 Z " fill="#FECD14" transform="translate(222,180)"/>
<path d="M0 0 C0.66 0.33 1.32 0.66 2 1 C1.54775239 6.91492272 0.8417395 12.35199888 -1 18 C-1.33 18 -1.66 18 -2 18 C-2.02689216 16.52093108 -2.04634621 15.04172517 -2.0625 13.5625 C-2.07410156 12.73878906 -2.08570313 11.91507813 -2.09765625 11.06640625 C-2 9 -2 9 -1 8 C-0.76924918 6.65252916 -0.58846937 5.29622435 -0.4375 3.9375 C-0.293125 2.638125 -0.14875 1.33875 0 0 Z " fill="#E92C00" transform="translate(203,244)"/>
<path d="M0 0 C-3.83325617 2.70582788 -6.32538149 3.32613618 -11 3 C-11 3.66 -11 4.32 -11 5 C-13.64 5 -16.28 5 -19 5 C-15.9040842 3.3863269 -12.76272828 2.05395018 -9.5 0.8125 C-8.5615625 0.44769531 -7.623125 0.08289063 -6.65625 -0.29296875 C-3.91128353 -1.02361424 -2.6236444 -0.97149097 0 0 Z " fill="#3C0100" transform="translate(320,344)"/>
<path d="M0 0 C7.10993658 0.2410148 7.10993658 0.2410148 9.64453125 2.40234375 C11 4.0625 11 4.0625 13 7 C3.40546697 4.29384966 3.40546697 4.29384966 0 0 Z " fill="#CF0B0B" transform="translate(171,331)"/>
<path d="M0 0 C0 0.99 0 1.98 0 3 C-0.61875 3.2475 -1.2375 3.495 -1.875 3.75 C-4.15543159 4.81738099 -4.15543159 4.81738099 -4.9375 7.0625 C-5.288125 7.701875 -5.63875 8.34125 -6 9 C-8.625 9.75 -8.625 9.75 -11 10 C-7.84778899 5.58690458 -4.44536093 2.99206986 0 0 Z " fill="#DB0B0B" transform="translate(154,55)"/>
<path d="M0 0 C2.60780871 0.22807073 5.2088289 0.4813495 7.8125 0.75 C8.91948242 0.8428125 8.91948242 0.8428125 10.04882812 0.9375 C15.54974762 1.53488492 15.54974762 1.53488492 18.01171875 4.078125 C18.33785156 4.71234375 18.66398437 5.3465625 19 6 C16.39392608 5.38221953 13.79034303 4.75612789 11.1875 4.125 C10.44951172 3.95097656 9.71152344 3.77695312 8.95117188 3.59765625 C5.50282963 2.75507489 2.98071638 1.98714425 0 0 Z " fill="#460100" transform="translate(290,23)"/>
<path d="M0 0 C-3.60957611 3.2910841 -6.12637153 4.54663921 -11 5 C-10.375 3.125 -10.375 3.125 -9 1 C-5.36656983 -0.62344752 -3.82788944 -1.27596315 0 0 Z " fill="#D40A09" transform="translate(341,332)"/>
<path d="M0 0 C1.01333399 3.15259465 0.81126663 4.84507423 0 8 C-0.22790662 12.25425693 -0.33594576 15.35008475 2 19 C1.01 19 0.02 19 -1 19 C-3.84965831 6.51480638 -3.84965831 6.51480638 0 0 Z " fill="#E52800" transform="translate(200,262)"/>
<path d="M0 0 C2.10362343 7.05988772 0.14166299 13.58007998 -3 20 C-4.37344385 15.60155678 -3.24307502 12.07495445 -2.0625 7.75 C-1.86720703 7.00492188 -1.67191406 6.25984375 -1.47070312 5.4921875 C-0.98895802 3.65920614 -0.49560775 1.82928182 0 0 Z " fill="#FEC317" transform="translate(233,136)"/>
<path d="M0 0 C-3.45058686 2.30039124 -5.94095502 2.4738275 -10 3 C-10.33 3.33 -10.66 3.66 -11 4 C-13.67058851 4.14115161 -16.32432238 4.04247107 -19 4 C-19 3.67 -19 3.34 -19 3 C-12.49577707 0.99134292 -6.8218683 -0.38614349 0 0 Z " fill="#C80E10" transform="translate(230,23)"/>
<path d="M0 0 C1.485 0.99 1.485 0.99 3 2 C4.9896995 2.39013716 6.99019869 2.73202649 9 3 C8.195625 3.3403125 8.195625 3.3403125 7.375 3.6875 C4.21499137 5.43382056 1.7323017 7.6402849 -1 10 C-0.67 6.7 -0.34 3.4 0 0 Z " fill="#ED1302" transform="translate(224,88)"/>
<path d="M0 0 C0.66 0.33 1.32 0.66 2 1 C-1.08290155 5.22797927 -1.08290155 5.22797927 -3 7 C-5.8125 7.375 -5.8125 7.375 -8 7 C-5.42215154 4.35247996 -3.08351902 2.05567935 0 0 Z " fill="#D70B0B" transform="translate(163,48)"/>
<path d="M0 0 C1.72357119 2.58535679 2.44735018 4.03811614 3.1875 6.9375 C3.36667969 7.60652344 3.54585938 8.27554688 3.73046875 8.96484375 C4.03268678 11.24680888 3.68756692 12.82026659 3 15 C0.22957891 12.22957891 0.60203894 10.23466195 0.375 6.375 C0.30023438 5.18648438 0.22546875 3.99796875 0.1484375 2.7734375 C0.09945313 1.85820313 0.05046875 0.94296875 0 0 Z " fill="#FEBE14" transform="translate(308,122)"/>
<path d="M0 0 C0.66 0.33 1.32 0.66 2 1 C-0.32446864 4.68040867 -2.07965475 6.2994906 -6.25 7.3125 C-7.4875 7.539375 -8.725 7.76625 -10 8 C-7.92141021 5.81907964 -5.78143382 4.03609531 -3.3125 2.3125 C-2.68988281 1.87550781 -2.06726563 1.43851562 -1.42578125 0.98828125 C-0.95527344 0.66214844 -0.48476563 0.33601563 0 0 Z " fill="#410001" transform="translate(353,323)"/>
<path d="M0 0 C4.08378283 0.74250597 8.01939223 1.82923301 12 3 C12 3.99 12 4.98 12 6 C10.55903414 5.57405412 9.12231288 5.13373367 7.6875 4.6875 C6.88699219 4.44386719 6.08648437 4.20023438 5.26171875 3.94921875 C2.90035427 2.95817977 1.66120007 1.91925057 0 0 Z " fill="#360000" transform="translate(320,32)"/>
<path d="M0 0 C0.33 0.99 0.66 1.98 1 3 C-1.45906075 6.87774964 -3.61740632 8.66087415 -8 10 C-7.04367001 8.70684939 -6.08486149 7.41553147 -5.125 6.125 C-4.59132813 5.40570313 -4.05765625 4.68640625 -3.5078125 3.9453125 C-2 2 -2 2 0 0 Z " fill="#3A0000" transform="translate(388,290)"/>
<path d="M0 0 C0.33 0 0.66 0 1 0 C1.3152595 5.98993047 0.68219822 9.63560356 -2 15 C-3.31534494 11.34142468 -2.65468309 8.91973519 -1.5625 5.25 C-1.27503906 4.26515625 -0.98757812 3.2803125 -0.69140625 2.265625 C-0.46324219 1.51796875 -0.23507813 0.7703125 0 0 Z " fill="#FFD715" transform="translate(204,251)"/>
<path d="M0 0 C-1.76774419 0.53122363 -3.53934083 1.04964073 -5.3125 1.5625 C-6.29863281 1.85253906 -7.28476563 2.14257812 -8.30078125 2.44140625 C-11 3 -11 3 -14 2 C-13.67 1.34 -13.34 0.68 -13 0 C-10.8203125 -0.44921875 -10.8203125 -0.44921875 -8.125 -0.6875 C-7.24070313 -0.77386719 -6.35640625 -0.86023438 -5.4453125 -0.94921875 C-3 -1 -3 -1 0 0 Z " fill="#370000" transform="translate(218,25)"/>
<path d="M0 0 C-1.55500981 3.81684226 -4.03595495 6.19195732 -7 9 C-7 7.68 -7 6.36 -7 5 C-6.01 5 -5.02 5 -4 5 C-4 3.68 -4 2.36 -4 1 C-2 0 -2 0 0 0 Z " fill="#E41C00" transform="translate(265,244)"/>
<path d="M0 0 C0.33 0.66 0.66 1.32 1 2 C-0.6875 5 -0.6875 5 -3 8 C-5.75 8.375 -5.75 8.375 -8 8 C-5.33333333 5.33333333 -2.66666667 2.66666667 0 0 Z " fill="#2B0000" transform="translate(367,312)"/>
<path d="M0 0 C0 3 0 3 -2.5 5.6875 C-3.325 6.450625 -4.15 7.21375 -5 8 C-5.99 7.67 -6.98 7.34 -8 7 C-5.36 4.69 -2.72 2.38 0 0 Z " fill="#1A0000" transform="translate(383,298)"/>
<path d="M0 0 C4.92127034 -0.16682272 8.50343896 -0.24828052 13 2 C13 2.33 13 2.66 13 3 C10.36 3 7.72 3 5 3 C5 2.34 5 1.68 5 1 C3.35 1 1.7 1 0 1 C0 0.67 0 0.34 0 0 Z " fill="#FCC011" transform="translate(264,92)"/>
<path d="M0 0 C-2.88087546 2.40072955 -5.56404834 4.47291037 -9 6 C-9 4.68 -9 3.36 -9 2 C-5.86501708 0.14223235 -3.62528568 -0.20140476 0 0 Z " fill="#330000" transform="translate(171,43)"/>
<path d="M0 0 C1.27450447 0.59638333 2.54446877 1.20247416 3.8125 1.8125 C4.52019531 2.14894531 5.22789062 2.48539063 5.95703125 2.83203125 C8.01129035 4.00645471 9.41616278 5.25628016 11 7 C9.35 6.67 7.7 6.34 6 6 C6 5.34 6 4.68 6 4 C4.68 4 3.36 4 2 4 C2 3.34 2 2.68 2 2 C1.34 2 0.68 2 0 2 C0 1.34 0 0.68 0 0 Z " fill="#D80D0D" transform="translate(336,41)"/>
<path d="M0 0 C2.64465038 3.1254959 3.84414715 6.08788267 5 10 C2 9 2 9 0.8125 7.25 C-0.10819096 4.70039426 -0.14948718 2.69076919 0 0 Z " fill="#460100" transform="translate(105,260)"/>
<path d="M0 0 C0.33 0 0.66 0 1 0 C1 3.3 1 6.6 1 10 C0.34 10 -0.32 10 -1 10 C-1.33 10.66 -1.66 11.32 -2 12 C-1 3.42857143 -1 3.42857143 0 0 Z " fill="#FED213" transform="translate(228,156)"/>
<path d="M0 0 C-1.24420647 0.5345256 -2.49570936 1.05208611 -3.75 1.5625 C-4.44609375 1.85253906 -5.1421875 2.14257812 -5.859375 2.44140625 C-8.30012784 3.07831803 -9.6403655 2.80248831 -12 2 C-7.75950782 -0.82699479 -4.85416215 -1.37070821 0 0 Z " fill="#390000" transform="translate(204,29)"/>
<path d="M0 0 C1.15227823 0.76116551 2.2966386 1.53432693 3.4375 2.3125 C4.07558594 2.74175781 4.71367187 3.17101562 5.37109375 3.61328125 C7 5 7 5 8 8 C7.34 8 6.68 8 6 8 C5.34 7.01 4.68 6.02 4 5 C1.44816596 3.79549696 1.44816596 3.79549696 -1 3 C-0.67 2.01 -0.34 1.02 0 0 Z " fill="#D40C0C" transform="translate(369,65)"/>
<path d="M0 0 C0.66 0 1.32 0 2 0 C0.25 7.625 0.25 7.625 -2 11 C-2.19622241 6.78121808 -1.80230168 3.82989106 0 0 Z " fill="#FEC115" transform="translate(247,160)"/>
<path d="M0 0 C0.33 0 0.66 0 1 0 C1.36923077 7.50769231 1.36923077 7.50769231 -0.5 10 C-0.995 10.33 -1.49 10.66 -2 11 C-1.125 3.375 -1.125 3.375 0 0 Z " fill="#EA3A01" transform="translate(252,145)"/>
<path d="M0 0 C1.1725131 0.95117134 2.33787015 1.91117009 3.5 2.875 C4.47453125 3.67550781 4.47453125 3.67550781 5.46875 4.4921875 C5.9740625 4.98976563 6.479375 5.48734375 7 6 C7 6.66 7 7.32 7 8 C6.34 8 5.68 8 5 8 C4.67 7.34 4.34 6.68 4 6 C3.01 5.67 2.02 5.34 1 5 C0.67 3.35 0.34 1.7 0 0 Z " fill="#CD0C0D" transform="translate(379,75)"/>
<path d="M0 0 C3.3 0.99 6.6 1.98 10 3 C10 3.33 10 3.66 10 4 C6.05272412 4.17942163 3.4019487 4.09350689 0 2 C0 1.34 0 0.68 0 0 Z " fill="#2F0000" transform="translate(193,343)"/>
<path d="M0 0 C1.32 0.33 2.64 0.66 4 1 C4 1.66 4 2.32 4 3 C5.32 3.66 6.64 4.32 8 5 C5.69 4.67 3.38 4.34 1 4 C0.67 2.68 0.34 1.36 0 0 Z " fill="#510202" transform="translate(160,325)"/>
<path d="M0 0 C2.79872437 2.52788007 4.45773019 4.20411134 5 8 C4.01 7.67 3.02 7.34 2 7 C2 6.01 2 5.02 2 4 C1.34 4 0.68 4 0 4 C0 2.68 0 1.36 0 0 Z " fill="#3D0000" transform="translate(111,272)"/>
<path d="M0 0 C0.33 0.66 0.66 1.32 1 2 C0.06421005 4.35981813 -0.93347808 6.69631264 -2 9 C-2.99 9 -3.98 9 -5 9 C-3.7508258 5.54074837 -2.32472205 2.85306797 0 0 Z " fill="#C40A0F" transform="translate(117,94)"/>
<path d="M0 0 C1.32 0 2.64 0 4 0 C4 0.66 4 1.32 4 2 C5.32 2 6.64 2 8 2 C8 2.99 8 3.98 8 5 C4.62496331 3.8141763 2.35277269 2.72426311 0 0 Z " fill="#3E0000" transform="translate(341,43)"/>
</svg>
